<svg xmlns="http://www.w3.org/2000/svg" width="140" height="130" viewBox="0 0 140 130" fill="none">
  <ellipse cx="70" cy="65" rx="70" ry="65" fill="black"/>
  <path d="M65.1994 29.3134C68.4424 27.2862 72.5576 27.2862 75.8006 29.3134L98.5281 43.5204C107.047 48.8457 103.274 62 93.2275 62H47.7725C37.726 62 33.9528 48.8457 42.4719 43.5204L65.1994 29.3134Z" fill="#D9D9D9"/>
  <path d="M75.8006 101.687C72.5576 103.714 68.4424 103.714 65.1994 101.687L42.4719 87.4796C33.9529 82.1543 37.726 69 47.7725 69H93.2275C103.274 69 107.047 82.1543 98.5281 87.4796L75.8006 101.687Z" fill="#D9D9D9"/>
  <rect x="38" y="48" width="65" height="34" rx="5" fill="#D9D9D9"/>
  <circle cx="70" cy="65" r="15" fill="black"/>
</svg>
